# xmcd
#
# Track frame offsets: 
#        150
#        22648
#        40667
#        59125
#        71159
#        86902
#        103286
#
# Disc length: 1589 seconds
#
# Revision: 0
# Processed by: cddbd v1.5.2PL0 Copyright (c) Steve Scherf et al.
# Submitted via: ExactAudioCopyFreeDBPlugin 1.0
#
DISCID=5e063307
DTITLE=Fantastic Negrito - Deluxe Edition EP
DYEAR=2015
DGENRE=Blues Rock
TTITLE0=Lost In A Crowd
TTITLE1=She Don't Cry No More
TTITLE2=An Honest Man
TTITLE3=Night Has Turned To Day
TTITLE4=The Time Has Come
TTITLE5=A Long Long Road
TTITLE6=A New Beginning
EXTD=
EXTT0=
EXTT1=
EXTT2=
EXTT3=
EXTT4=
EXTT5=
EXTT6=
PLAYORDER=
